<?xml version="1.0" encoding="utf-8" standalone="no"?>
<!DOCTYPE svg PUBLIC "-//W3C//DTD SVG 1.1//EN" "http://www.w3.org/Graphics/SVG/1.1/DTD/svg11.dtd">
<svg version="1.1" width="612pt" height="792pt" viewBox="0 0 612 792" overflow="visible" xmlns="http://www.w3.org/2000/svg">
  <path d="M206.6063,486.763 L398.7715,486.763 C402.4276,486.8602 406.8259,485.201 409.8546,482.1722 C412.8834,479.1434 414.5426,474.7451 414.4454,471.0891 L414.4454,306.6819 C414.5426,303.0258 412.8834,298.6276 409.8546,295.5988 C406.8259,292.57 402.4276,290.9108 398.7715,291.008 L206.6063,291.008 C202.9502,290.9108 198.5519,292.57 195.5232,295.5988 C192.4944,298.6276 190.8352,303.0258 190.9324,306.6819 L190.9324,471.0891 C190.8352,474.7451 192.4944,479.1434 195.5232,482.1722 C198.5519,485.201 202.9502,486.8602 206.6063,486.763 z" stroke="#07B700" stroke-width="4.32" fill="none" />
  <path d="M364.2891,394.3151 L247.3583,461.8251 C245.5661,462.9362 242.8809,462.9362 241.0887,461.8251 C239.2304,460.8286 237.8878,458.5031 237.9539,456.3955 L237.9539,321.3755 C237.8878,319.2679 239.2304,316.9424 241.0887,315.9459 C242.8809,314.8348 245.5661,314.8348 247.3583,315.9459 L364.2891,383.4559 C366.1474,384.4524 367.49,386.7779 367.4239,388.8855 C367.49,390.9931 366.1474,393.3186 364.2891,394.3151 z" stroke="Black" stroke-width="0" fill="#07B700" fill-opacity="1" />
  <path d="M206.6063,490.6814 C202.0362,490.8029 196.5384,488.7289 192.7524,484.943 C188.9665,481.157 186.8925,475.6591 187.014,471.0891 L187.014,306.6819 C186.8925,302.1118 188.9665,296.614 192.7524,292.828 C196.5384,289.0421 202.0362,286.9681 206.6063,287.0896 L398.7715,287.0896 C403.3416,286.9681 408.8394,289.0421 412.6254,292.828 C416.4113,296.614 418.4854,302.1118 418.3639,306.6819 L418.3639,471.0891 C418.4854,475.6591 416.4113,481.157 412.6254,484.943 C408.8394,488.7289 403.3416,490.8029 398.7715,490.6814 z M206.6063,482.8445 L398.7715,482.8445 C404.556,483.4309 411.1133,476.8736 410.5269,471.0891 L410.5269,306.6819 C411.1133,300.8974 404.556,294.3401 398.7715,294.9265 L206.6063,294.9265 C200.8218,294.3401 194.2645,300.8974 194.8509,306.6819 L194.8509,471.0891 C194.2645,476.8736 200.8218,483.4309 206.6063,482.8445 z" stroke="Black" stroke-width="0" fill="#07B700" fill-opacity="1" />
  <path d="M206.6063,490.6814 L398.7715,490.6814 C403.3416,490.8029 408.8394,488.7289 412.6254,484.943 C416.4113,481.157 418.4854,475.6591 418.3639,471.0891 L418.3639,306.6819 C418.4854,302.1118 416.4113,296.614 412.6254,292.828 C408.8394,289.0421 403.3416,286.9681 398.7715,287.0896 L206.6063,287.0896 C202.0362,286.9681 196.5384,289.0421 192.7524,292.828 C188.9665,296.614 186.8925,302.1118 187.014,306.6819 L187.014,471.0891 C186.8925,475.6591 188.9665,481.157 192.7524,484.943 C196.5384,488.7289 202.0362,490.8029 206.6063,490.6814 z" stroke="#07B700" stroke-width="0.24" fill="none" />
  <path d="M206.6063,482.8445 L398.7715,482.8445 C404.556,483.4309 411.1133,476.8736 410.5269,471.0891 L410.5269,306.6819 C411.1133,300.8974 404.556,294.3401 398.7715,294.9265 L206.6063,294.9265 C200.8218,294.3401 194.2645,300.8974 194.8509,306.6819 L194.8509,471.0891 C194.2645,476.8736 200.8218,483.4309 206.6063,482.8445 z" stroke="#07B700" stroke-width="0.24" fill="none" />
  <path d="M586.8577,576.9716 C586.9548,580.6276 585.2957,585.0259 582.2669,588.0547 C579.2382,591.0834 574.8398,592.7426 571.1838,592.6454 C567.5278,592.7426 563.1295,591.0834 560.1007,588.0547 C557.072,585.0259 555.4128,580.6276 555.5099,576.9716 C555.4128,573.3156 557.072,568.9173 560.1007,565.8885 C563.1295,562.8597 567.5278,561.2006 571.1838,561.2977 C574.8398,561.2006 579.2382,562.8597 582.2669,565.8885 C585.2957,568.9173 586.9548,573.3156 586.8577,576.9716 z" stroke="Black" stroke-width="0" fill="#1EFFF0" fill-opacity="1" />
  <path d="M586.8577,388.8855 C586.9548,392.5415 585.2957,396.9398 582.2669,399.9686 C579.2382,402.9973 574.8398,404.6565 571.1838,404.5593 C567.5278,404.6565 563.1295,402.9973 560.1007,399.9686 C557.072,396.9398 555.4128,392.5415 555.5099,388.8855 C555.4128,385.2295 557.072,380.8312 560.1007,377.8024 C563.1295,374.7737 567.5278,373.1145 571.1838,373.2117 C574.8398,373.1145 579.2382,374.7737 582.2669,377.8024 C585.2957,380.8312 586.9548,385.2295 586.8577,388.8855 z" stroke="Black" stroke-width="0" fill="#1EFFF0" fill-opacity="1" />
  <path d="M586.8577,451.5809 C586.9548,455.2369 585.2957,459.6352 582.2669,462.6639 C579.2382,465.6927 574.8398,467.3519 571.1838,467.2547 C567.5278,467.3519 563.1295,465.6927 560.1007,462.6639 C557.072,459.6352 555.4128,455.2369 555.5099,451.5809 C555.4128,447.9248 557.072,443.5266 560.1007,440.4978 C563.1295,437.469 567.5278,435.8098 571.1838,435.907 C574.8398,435.8098 579.2382,437.469 582.2669,440.4978 C585.2957,443.5266 586.9548,447.9248 586.8577,451.5809 z" stroke="Black" stroke-width="0" fill="#1EFFF0" fill-opacity="1" />
  <path d="M473.8754,404.5593 C474.4618,398.7749 467.9044,392.2175 462.12,392.804 L414.4454,392.804 L414.4454,384.967 L559.512,384.967 L559.512,392.804 L519.5908,392.804 C522.0964,396.094 523.5397,400.424 523.5092,404.5593 L523.5092,435.907 C522.9228,441.6915 529.4802,448.2488 535.2646,447.6624 L559.512,447.6624 L559.512,455.4993 L535.2646,455.4993 C530.6946,455.6208 525.1967,453.5468 521.4108,449.7609 C517.6248,445.9749 515.5508,440.4771 515.6723,435.907 L515.6723,404.5593 C516.2587,398.7749 509.7014,392.2175 503.9169,392.804 L477.7938,392.804 C480.2994,396.094 481.7428,400.424 481.7123,404.5593 L481.7123,561.2977 C481.1259,567.0822 487.6832,573.6396 493.4677,573.0532 L559.512,573.0532 L559.512,580.8901 L493.0328,580.8876 C488.4869,580.902 483.1168,578.7482 479.4357,574.9719 C475.7546,571.1955 473.7626,565.7967 473.8754,561.2977 z" stroke="Black" stroke-width="0" fill="#1EFFF0" fill-opacity="1" />
  <path d="M523.5092,435.907 L523.5092,404.5594" stroke="#1EFFF0" stroke-width="0.24" fill="none" />
  <path d="M473.8754,404.5593 C474.4618,398.7749 467.9044,392.2175 462.12,392.804" stroke="#1EFFF0" stroke-width="0.24" fill="none" />
  <path d="M535.2646,455.4993 C530.6946,455.6208 525.1967,453.5468 521.4108,449.7609 C517.6248,445.9749 515.5508,440.4771 515.6723,435.907" stroke="#1EFFF0" stroke-width="0.24" fill="none" />
  <path d="M519.5908,392.804 L571.1838,392.804" stroke="#1EFFF0" stroke-width="0.24" fill="none" />
  <path d="M515.6723,404.5593 C516.2587,398.7749 509.7014,392.2175 503.9169,392.804" stroke="#1EFFF0" stroke-width="0.24" fill="none" />
  <path d="M571.1838,573.0532 L493.4677,573.0532" stroke="#1EFFF0" stroke-width="0.24" fill="none" />
  <path d="M523.5092,404.5593 C523.5397,400.424 522.0964,396.094 519.5908,392.804" stroke="#1EFFF0" stroke-width="0.24" fill="none" />
  <path d="M493.4677,580.8901 C488.8976,581.0115 483.3998,578.9376 479.6138,575.1516 C475.8279,571.3657 473.7539,565.8678 473.8754,561.2977 L473.8754,404.5594" stroke="#1EFFF0" stroke-width="0.24" fill="none" />
  <path d="M535.2646,447.6624 C529.4802,448.2488 522.9228,441.6915 523.5092,435.907" stroke="#1EFFF0" stroke-width="0.24" fill="none" />
  <path d="M571.1838,580.8901 L490.8554,580.8901" stroke="#1EFFF0" stroke-width="0.24" fill="none" />
  <path d="M571.1838,455.4994 L535.2646,455.4994" stroke="#1EFFF0" stroke-width="0.24" fill="none" />
  <path d="M493.4677,573.0532 C487.6832,573.6396 481.1259,567.0822 481.7123,561.2977" stroke="#1EFFF0" stroke-width="0.24" fill="none" />
  <path d="M515.6723,435.907 L515.6723,404.5594" stroke="#1EFFF0" stroke-width="0.24" fill="none" />
  <path d="M414.4454,392.804 L462.12,392.804" stroke="#1EFFF0" stroke-width="0.24" fill="none" />
  <path d="M571.1838,447.6624 L535.2646,447.6624" stroke="#1EFFF0" stroke-width="0.24" fill="none" />
  <path d="M477.7939,392.804 L503.9169,392.804" stroke="#1EFFF0" stroke-width="0.24" fill="none" />
  <path d="M481.7123,404.5593 C481.7428,400.424 480.2994,396.094 477.7938,392.804" stroke="#1EFFF0" stroke-width="0.24" fill="none" />
  <path d="M481.7123,561.2978 L481.7123,404.5594" stroke="#1EFFF0" stroke-width="0.24" fill="none" />
  <path d="M414.4454,384.9671 L571.1838,384.9671" stroke="#1EFFF0" stroke-width="0.24" fill="none" />
  <path d="M18.52016,326.1901 C18.42297,322.5341 20.08217,318.1358 23.11093,315.1071 C26.13968,312.0783 30.53798,310.4191 34.19401,310.5163 C37.85003,310.4191 42.24834,312.0783 45.27709,315.1071 C48.30584,318.1358 49.96504,322.5341 49.86785,326.1901 C49.96504,329.8462 48.30584,334.2444 45.27709,337.2732 C42.24834,340.302 37.85003,341.9612 34.19401,341.864 C30.53798,341.9612 26.13968,340.302 23.11093,337.2732 C20.08217,334.2444 18.42297,329.8462 18.52016,326.1901 z" stroke="Black" stroke-width="0" fill="#FFBB00" fill-opacity="1" />
  <path d="M18.52016,200.7994 C18.42297,197.1434 20.08217,192.7451 23.11093,189.7163 C26.13968,186.6876 30.53798,185.0284 34.19401,185.1255 C37.85003,185.0284 42.24834,186.6876 45.27709,189.7163 C48.30584,192.7451 49.96504,197.1434 49.86785,200.7994 C49.96504,204.4554 48.30584,208.8537 45.27709,211.8825 C42.24834,214.9112 37.85003,216.5704 34.19401,216.4732 C30.53798,216.5704 26.13968,214.9112 23.11093,211.8825 C20.08217,208.8537 18.42297,204.4554 18.52016,200.7994 z" stroke="Black" stroke-width="0" fill="#FFBB00" fill-opacity="1" />
  <path d="M18.52016,388.8855 C18.42297,385.2295 20.08217,380.8312 23.11093,377.8024 C26.13968,374.7737 30.53798,373.1145 34.19401,373.2117 C37.85003,373.1145 42.24834,374.7737 45.27709,377.8024 C48.30584,380.8312 49.96504,385.2295 49.86785,388.8855 C49.96504,392.5415 48.30584,396.9398 45.27709,399.9686 C42.24834,402.9973 37.85003,404.6565 34.19401,404.5593 C30.53798,404.6565 26.13968,402.9973 23.11093,399.9686 C20.08217,396.9398 18.42297,392.5415 18.52016,388.8855 z" stroke="Black" stroke-width="0" fill="#FFBB00" fill-opacity="1" />
  <path d="M131.5024,373.2117 C130.916,378.9961 137.4734,385.5535 143.2578,384.967 L190.9324,384.967 L190.9324,392.804 L45.8658,392.804 L45.8658,384.967 L85.78707,384.967 C83.28146,381.677 81.83813,377.347 81.86861,373.2117 L81.86861,341.864 C82.45503,336.0795 75.89767,329.5222 70.11323,330.1086 L45.8658,330.1086 L45.8658,322.2717 L70.11323,322.2717 C74.68327,322.1502 80.18114,324.2242 83.96708,328.0101 C87.75302,331.7961 89.82703,337.2939 89.70553,341.864 L89.70553,373.2117 C89.11911,378.9961 95.67647,385.5535 101.4609,384.967 L127.584,384.967 C125.0784,381.677 123.635,377.347 123.6655,373.2117 L123.6655,216.4732 C124.2519,210.6888 117.6946,204.1314 111.9101,204.7178 L45.8658,204.7178 L45.8658,196.8809 L112.345,196.8833 C116.8909,196.8689 122.2611,199.0228 125.9421,202.7991 C129.6232,206.5755 131.6152,211.9743 131.5024,216.4732 z" stroke="Black" stroke-width="0" fill="#FFBB00" fill-opacity="1" />
  <path d="M414.4454,404.5594 L414.4454,373.2117" stroke="#FFBB00" stroke-width="0.24" fill="none" />
  <path d="M34.19403,196.881 L114.5225,196.881" stroke="#FFBB00" stroke-width="0.24" fill="none" />
  <path d="M190.9324,404.5594 L190.9324,373.2117" stroke="#FFBB00" stroke-width="0.24" fill="none" />
  <path d="M131.5024,373.2117 C130.916,378.9961 137.4734,385.5535 143.2578,384.967" stroke="#FFBB00" stroke-width="0.24" fill="none" />
  <path d="M111.9101,204.7178 C117.6946,204.1314 124.2519,210.6888 123.6655,216.4732" stroke="#FFBB00" stroke-width="0.24" fill="none" />
  <path d="M190.9324,392.804 L34.19403,392.804" stroke="#FFBB00" stroke-width="0.24" fill="none" />
  <path d="M34.19403,330.1086 L70.11325,330.1086" stroke="#FFBB00" stroke-width="0.24" fill="none" />
  <path d="M190.9324,384.9671 L143.2579,384.9671" stroke="#FFBB00" stroke-width="0.24" fill="none" />
  <path d="M89.70553,373.2117 C89.11911,378.9961 95.67647,385.5535 101.4609,384.967" stroke="#FFBB00" stroke-width="0.24" fill="none" />
  <path d="M131.5025,216.4733 L131.5025,373.2117" stroke="#FFBB00" stroke-width="0.24" fill="none" />
  <path d="M111.9101,196.8809 C116.4802,196.7594 121.9781,198.8335 125.764,202.6194 C129.5499,206.4053 131.6239,211.9032 131.5024,216.4732" stroke="#FFBB00" stroke-width="0.24" fill="none" />
  <path d="M70.11323,322.2717 C74.68327,322.1502 80.18114,324.2242 83.96708,328.0101 C87.75302,331.7961 89.82703,337.2939 89.70553,341.864" stroke="#FFBB00" stroke-width="0.24" fill="none" />
  <path d="M70.11323,330.1086 C75.89767,329.5222 82.45503,336.0795 81.86861,341.864" stroke="#FFBB00" stroke-width="0.24" fill="none" />
  <path d="M127.584,384.9671 L101.4609,384.9671" stroke="#FFBB00" stroke-width="0.24" fill="none" />
  <path d="M81.86862,341.864 L81.86862,373.2117" stroke="#FFBB00" stroke-width="0.24" fill="none" />
  <path d="M85.78709,384.9671 L34.19403,384.9671" stroke="#FFBB00" stroke-width="0.24" fill="none" />
  <path d="M89.70555,341.864 L89.70555,373.2117" stroke="#FFBB00" stroke-width="0.24" fill="none" />
  <path d="M123.6656,216.4733 L123.6656,373.2117" stroke="#FFBB00" stroke-width="0.24" fill="none" />
  <path d="M81.86861,373.2117 C81.83813,377.347 83.28146,381.677 85.78707,384.967" stroke="#FFBB00" stroke-width="0.24" fill="none" />
  <path d="M34.19403,204.7179 L111.9102,204.7179" stroke="#FFBB00" stroke-width="0.24" fill="none" />
  <path d="M34.19403,322.2717 L70.11325,322.2717" stroke="#FFBB00" stroke-width="0.24" fill="none" />
  <path d="M123.6655,373.2117 C123.635,377.347 125.0784,381.677 127.584,384.967" stroke="#FFBB00" stroke-width="0.24" fill="none" />
  <path d="M345.6098,514.8032 C351.4025,514.8032 356.1157,519.5164 356.1113,525.3076 L356.1113,553.9641 C356.1113,561.8282 353.4081,569.4786 348.4784,575.6268 L348.4769,582.954 C348.4769,587.3454 344.9047,590.9176 340.5134,590.9176 L301.9917,590.9176 C297.6004,590.9176 294.0282,587.3454 294.0282,582.954 L294.0282,575.2407 L278.5166,556.0647 C275.4695,552.298 274.1135,547.5731 274.6957,542.7619 C275.2794,537.9521 277.7267,533.6895 281.5855,530.7595 L286.6747,526.8962 L286.6747,486.7948 C286.6747,481.0006 291.3893,476.2874 297.182,476.2874 L297.9164,476.2874 C303.7105,476.2874 308.4237,481.002 308.4237,486.7948 L308.4237,502.9296 C309.828,502.2333 311.4093,501.8412 313.0798,501.8412 L313.8141,501.8412 C318.3152,501.8412 322.1639,504.6849 323.6574,508.6696 C325.2197,507.7495 327.038,507.2215 328.9777,507.2215 L329.712,507.2215 C334.905,507.2215 339.2305,511.0087 340.0716,515.9661 C341.511,515.223 343.1435,514.8032 344.874,514.8032 z" stroke="Black" stroke-width="0" fill="#000000" fill-opacity="1" />
  <path d="M319.0232,487.0757 C317.4083,487.0757 316.0976,485.765 316.0976,484.15 C316.0976,473.6558 307.5592,465.1174 297.065,465.1174 C286.5693,465.1174 278.0309,473.6558 278.0309,484.15 C278.0309,485.765 276.7202,487.0757 275.1053,487.0757 C273.4904,487.0757 272.1797,485.765 272.1797,484.15 C272.1797,470.4289 283.3438,459.2662 297.065,459.2662 C310.7861,459.2662 321.9503,470.4289 321.9503,484.15 C321.9489,485.7664 320.6396,487.0757 319.0232,487.0757 z" stroke="Black" stroke-width="0" fill="#000000" fill-opacity="1" />
  <path d="M345.6098,514.8032 L344.874,514.8032 C343.1435,514.8032 341.511,515.223 340.0716,515.9661 C339.2305,511.0087 334.905,507.2215 329.712,507.2215 L328.9777,507.2215 C327.038,507.2215 325.2197,507.7495 323.6574,508.6696 C322.1639,504.6849 318.3152,501.8412 313.8141,501.8412 L313.0798,501.8412 C311.4093,501.8412 309.828,502.2333 308.4237,502.9296 L308.4237,486.7948 C308.4237,481.002 303.7105,476.2874 297.9164,476.2874 L297.182,476.2874 C291.3893,476.2874 286.6747,481.0006 286.6747,486.7948 L286.6747,526.8962 L281.5855,530.7595 C277.7267,533.6895 275.2794,537.9521 274.6957,542.7619 C274.1135,547.5731 275.4695,552.298 278.5166,556.0647 L294.0282,575.2407 L294.0282,582.954 C294.0282,587.3454 297.6004,590.9176 301.9917,590.9176 L340.5134,590.9176 C344.9047,590.9176 348.4769,587.3454 348.4769,582.954 L348.4784,575.6268 C353.4081,569.4786 356.1113,561.8282 356.1113,553.9641 L356.1113,525.3076 C356.1157,519.5164 351.4025,514.8032 345.6098,514.8032 z" stroke="#000000" stroke-width="0.24" fill="none" />
  <path d="M350.2645,553.9656 C350.2645,560.8027 347.8026,567.4454 343.3337,572.6705 C342.8787,573.2 342.6315,573.8744 342.6315,574.5721 L342.6315,582.954 C342.6315,584.1199 341.6851,585.0663 340.5192,585.0663 L301.9961,585.0663 C300.8317,585.0663 299.8838,584.1199 299.8838,582.954 L299.8838,574.205 C299.8838,573.535 299.6542,572.8856 299.2329,572.3647 L283.0688,552.3843 C281.0267,549.858 280.1154,546.691 280.5074,543.4655 C280.898,540.2415 282.5393,537.3831 285.1255,535.4186 L286.6761,534.2425 L286.6761,544.0199 C286.6761,545.6348 287.9868,546.9456 289.6017,546.9456 C291.2167,546.9456 292.5273,545.6348 292.5273,544.0199 L292.5273,528.3781 L292.5273,486.7948 C292.5273,484.2275 294.6162,482.1387 297.1835,482.1387 L297.9178,482.1387 C300.485,482.1387 302.5739,484.2275 302.5739,486.7948 L302.5739,512.3486 L302.59,533.6076 C302.5915,535.2226 303.9007,536.5303 305.5157,536.5303 C307.132,536.5289 308.4427,535.2197 308.4413,533.6017 L308.4252,512.3501 C308.4252,509.7843 310.5141,507.6954 313.0813,507.6954 L313.8156,507.6954 C316.3828,507.6954 318.4717,509.7843 318.4717,512.3501 L318.4717,517.7303 L318.4879,533.6091 C318.4893,535.2241 319.7985,536.5318 321.4135,536.5318 C323.0313,536.5303 324.3405,535.2197 324.3391,533.6032 L324.323,517.7303 C324.323,515.1645 326.4119,513.0756 328.9791,513.0756 L329.7134,513.0756 C332.2807,513.0756 334.3696,515.1645 334.3696,517.7303 L334.3696,524.4622 L334.3388,524.7795 L334.3549,533.6105 C334.3579,535.2241 335.6671,536.5303 337.2805,536.5303 C338.9014,536.5274 340.2091,535.2153 340.2062,533.5989 L340.1916,525.6075 L340.2208,525.3105 C340.2208,522.7433 342.3097,520.6544 344.8769,520.6544 L345.6127,520.6544 C348.1785,520.6544 350.2674,522.7433 350.2674,525.3105 z" stroke="#000000" stroke-width="0.24" fill="none" />
  <path d="M319.0232,487.0757 C317.4083,487.0757 316.0976,485.765 316.0976,484.15 C316.0976,473.6558 307.5592,465.1174 297.065,465.1174 C286.5693,465.1174 278.0309,473.6558 278.0309,484.15 C278.0309,485.765 276.7202,487.0757 275.1053,487.0757 C273.4904,487.0757 272.1797,485.765 272.1797,484.15 C272.1797,470.4289 283.3438,459.2662 297.065,459.2662 C310.7861,459.2662 321.9503,470.4289 321.9503,484.15 C321.9489,485.7664 320.6396,487.0757 319.0232,487.0757 z" stroke="#000000" stroke-width="0.24" fill="none" />
  <path d="M430.1192,388.8855 C430.2164,392.5415 428.5572,396.9398 425.5285,399.9686 C422.4997,402.9973 418.1014,404.6565 414.4454,404.5593 C410.7894,404.6565 406.3911,402.9973 403.3623,399.9686 C400.3336,396.9398 398.6743,392.5415 398.7715,388.8855 C398.6743,385.2295 400.3336,380.8312 403.3623,377.8024 C406.3911,374.7737 410.7894,373.1145 414.4454,373.2117 C418.1014,373.1145 422.4997,374.7737 425.5285,377.8024 C428.5572,380.8312 430.2164,385.2295 430.1192,388.8855 z" stroke="Black" stroke-width="0" fill="#1EFFF0" fill-opacity="1" />
  <path d="M175.2586,388.8855 C175.1614,385.2295 176.8206,380.8312 179.8493,377.8024 C182.8781,374.7737 187.2764,373.1145 190.9324,373.2117 C194.5885,373.1145 198.9868,374.7737 202.0155,377.8024 C205.0443,380.8312 206.7035,385.2295 206.6063,388.8855 C206.7035,392.5415 205.0443,396.9398 202.0155,399.9686 C198.9868,402.9973 194.5885,404.6565 190.9324,404.5593 C187.2764,404.6565 182.8781,402.9973 179.8493,399.9686 C176.8206,396.9398 175.1614,392.5415 175.2586,388.8855 z" stroke="Black" stroke-width="0" fill="#FFBB00" fill-opacity="1" />
</svg>